/* XPM */
static char *caf019d35d8d46bafa63a25ae9e50777ksDV54tEHteRyD0C[] = {
/* columns rows colors chars-per-pixel */
"16 17 59 1 ",
"  c None",
". c #17826C",
"X c #16836D",
"o c #17846D",
"O c #17856D",
"+ c #19806A",
"@ c #19826B",
"# c #18826C",
"$ c #18836C",
"% c #18836D",
"& c #19836D",
"* c #1A836D",
"= c #18836E",
"- c #18846C",
"; c #18846D",
": c #19846D",
"> c #18856D",
", c #19846E",
"< c #18856E",
"1 c #238A74",
"2 c #258B76",
"3 c #35937F",
"4 c #36937F",
"5 c #359480",
"6 c #3D9784",
"7 c #51A291",
"8 c #51A391",
"9 c #52A292",
"0 c #57A393",
"q c #5DA798",
"w c #60AA9B",
"e c #6EB1A3",
"r c #6EB2A3",
"t c #6DB2A4",
"y c #6FB2A4",
"u c #71B2A4",
"i c #74B2A5",
"p c #86BFB3",
"a c #85BFB4",
"s c #8CBFB5",
"d c #8AC0B5",
"f c #8AC1B5",
"g c #89C1B6",
"h c #8AC1B6",
"j c #8DC1B7",
"k c #97C7BC",
"l c #9AC8BF",
"z c #A9CFC8",
"x c #A4D0C7",
"c c #AED4CC",
"v c #B0D5CE",
"b c #B1D6CF",
"n c #B5D8D1",
"m c #B7D8D1",
"M c #B9DCD5",
"N c #C4E0DA",
"B c #C5E0DA",
"V c #C7E0DB",
"C c #D4E7E4",
/* pixels */
"                ",
"     o::::#     ",
"   :::::::::@   ",
"  #::::::::::#  ",
"  ::::::::::::  ",
" :::::::::::::o ",
" :2Vxm1:::5pvo: ",
"o::u99i:::lar:::",
"@::#z:c2:5sV:::#",
"::::t09d:kdr:::#",
" ::::M:m6dV:::: ",
" ::::wq9jdr:o:: ",
" :::::vtCV::::X ",
"  ::::4994:::#  ",
"   :::::::::X   ",
"     #::::o     ",
"                "
};
