/* XPM */
static char *c6e914a27f924999c3772105310f91a80QtL51SCy2tQanoH[] = {
/* columns rows colors chars-per-pixel */
"64 65 131 2 ",
"   c None",
".  c #17846D",
"X  c #18846D",
"o  c #1E8770",
"O  c #1E8872",
"+  c #248A75",
"@  c #298C77",
"#  c #2B8E7A",
"$  c #2D917C",
"%  c #34927E",
"&  c #379280",
"*  c #3B9583",
"=  c #3E9986",
"-  c #409785",
";  c #459D8A",
":  c #489E8B",
">  c #4EA18F",
",  c #4DA190",
"<  c #52A292",
"1  c #5BA596",
"2  c #5DA999",
"3  c #63AB9C",
"4  c #66AFA1",
"5  c #69AEA1",
"6  c #67B0A0",
"7  c #6DB1A3",
"8  c #72B3A5",
"9  c #74B5A9",
"0  c #7AB6AA",
"q  c #77B8AA",
"w  c #7DBAAD",
"e  c #80BBAF",
"r  c #84BDB2",
"t  c #89BFB5",
"y  c #8BC0B5",
"u  c #8FC2B8",
"i  c #92C4B9",
"p  c #98C5BC",
"a  c #95C9BD",
"s  c #9CCAC1",
"d  c #A5CFC7",
"f  c #A9CFC8",
"g  c #A6D0C7",
"h  c #A6D0C8",
"j  c #ACD2CA",
"k  c #B1D2CC",
"l  c #B5D7D0",
"z  c #B9D7D1",
"x  c #BCDBD6",
"c  c #C3DEDA",
"v  c #CDE3DE",
"b  c #D1E5E2",
"n  c #D1E4E1",
"m  c #D4E7E3",
"M  c #D4E7E4",
"N  c #D5E7E4",
"B  c #D4E6E3",
"V  c #D3E8E4",
"C  c #D6EAE7",
"Z  c #D7EBE7",
"A  c #D8EAE7",
"S  c #DAEAE7",
"D  c #D8EBE8",
"F  c #DAEAE8",
"G  c #DCEBE9",
"H  c #D8EDE9",
"J  c #DAECE9",
"K  c #D9EDEA",
"L  c #DBEEEA",
"P  c #DCECE9",
"I  c #DCEDE9",
"U  c #DCEEEB",
"Y  c #DDEEEB",
"T  c #DFEEEB",
"R  c #DEEFEB",
"E  c #DFEFEB",
"W  c #DFEEEC",
"Q  c #DEEFEC",
"!  c #DFEFEC",
"~  c #E0EEEB",
"^  c #E2EFEB",
"/  c #E0EEEC",
"(  c #E1EEEC",
")  c #E0EFEC",
"_  c #E2EEEC",
"`  c #E3EEEC",
"'  c #E3EFEC",
"]  c #E4EEED",
"[  c #E5EFEE",
"{  c #E2F0ED",
"}  c #E4F0EE",
"|  c #E4F1EF",
" . c #E6F0EE",
".. c #E8F1EF",
"X. c #E5F3F1",
"o. c #E6F3F1",
"O. c #E6F4F1",
"+. c #E9F1F1",
"@. c #E9F3F1",
"#. c #E9F3F2",
"$. c #EAF3F2",
"%. c #EBF4F1",
"&. c #E9F5F3",
"*. c #EAF5F3",
"=. c #EBF5F5",
"-. c #EDF5F4",
";. c #EEF4F5",
":. c #EDF6F4",
">. c #EDF6F5",
",. c #EFF6F5",
"<. c #F0F6F5",
"1. c #F1F6F5",
"2. c #F0F6F6",
"3. c #F1F7F6",
"4. c #F3F7F7",
"5. c #F7FAF9",
"6. c #F5F9F9",
"7. c #FBFEFE",
"8. c #FDFEFE",
"9. c #FDFFFE",
"0. c #FDFEFF",
"q. c #FDFFFF",
"w. c #FEFEFE",
"e. c #FFFEFE",
"r. c #FEFFFE",
"t. c #FFFFFE",
"y. c #FEFEFF",
"u. c #FFFEFF",
"i. c #FEFFFF",
"p. c white",
"a. c #FEFFFF",
/* pixels */
"                                                                                                                                ",
"                                                                                                                                ",
"                                                    X X X X X X X X X X X X                                                     ",
"                                            X . . X X X X X X X X X X X X X X . X X                                             ",
"                                      X . X X X X X X X X X X X X X X X X X X X X X X X X                                       ",
"                                  X X X X X X X X X X X X X X X X X X X X X X X X X X X X X X                                   ",
"                                X X X X X X X X X X X X X X X X X X X X X X X X X X X X X X X X                                 ",
"                            X X X X X X X X X X X X X X X X X X X X X X X X X X X X X X X X X X X X                             ",
"                          X X X X X X X X X X X X X X X X X X X X X X X X X X X X X X X X X X X X X .                           ",
"                        . X X X X X X X X X X X X X X X X X X X X X X X X X X X X X X X X X X X X X X X                         ",
"                      X X X X X X X X X X X X X X X X X X X X X X X X X X X X X X X X X X X X X X X X X .                       ",
"                    X X X X X X X X X X X X X X X X X X X X X X X X X X X X X X X X X X X X X X X X X X X .                     ",
"                  . X X X X X X X X X X X X X X X X X X X X X X X X X X X X X X X X X X X X X X X X X X X X X                   ",
"                X X X X X X X X X X X X X X X X X X X X X X X X X X X X X X X X X X X X X X X X X X X X X X X X                 ",
"              . X X X X X X X X X X X X X X X X X X X X X X X X X X X X X X X X X X X X X X X X X X X X X X X X X               ",
"            X X X X X X X X X X X X X X X X X X X X X X X X X X X X X X X X X X X X X X X X X X X X X X X X X X X X             ",
"            . X X X X X X X X X X X X X X X X X X X X X X X X X X X X X X X X X X X X X X X X X X X X X X X X X X X             ",
"          X X X X X X X X X X X X X X X X X X X X X X X X X X X X X X X X X X X X X X X X X X X X X X X X X X X X X X           ",
"          X X X X X X X X X X X X X X X X X X X X X X X X X X X X X X X X X X X X X X X X X X X X X X X X X X X X X X           ",
"        X X X X X X X X X X X X X X X X X X X X X X X X X X X X X X X X X X X X X X X X X X X X X X X X X X X X X X X X         ",
"        X X X X X X X X X X X X X X X X X X X X X X X X X X X X X X X X X X X X X X X X X X X X X X X X X X X X X X X .         ",
"      X X X X X X X X X X X X X X X X X X X X X X X X X X X X X X X X X X X X X X X X X . X X X X X X X X X X X X X X X .       ",
"      X X X X X X X X , d d d d d d d d d d u X X X X X X X X X X X X X X X X X X X X X s g s X . 3 g g ; X X X X X X X X       ",
"      X X X X X X X X + *.y.y.y.y.y.y.y.y.y.y.1 X X X X X X X X X X X X X X X X X X X 6 y.y.a . X ! y./ + X X X X X X X X       ",
"    X X X X X X X X X X r y.y.3./ ~ / / / y.y.n X X X X X X X X X X X X X X X X X X X K y.:.% . 8 y.y.0 X X X X X X X X X X     ",
"    X X X X X X X X X X + O.y.o.+ X X X X y y.y.3 X X X X X X X X X X X X X X X X X 7 y.y.i X X ~ y./ O X X X X X X X X X X     ",
"    X X X X X X X X X X X w y.y.1 X X X X @ 3.y.M X X X X X X X X X X X X X X X X X T y.+.$ X 4 y.y.8 . X X X X X X X X X X     ",
"    X X X X X X X X X X X + } y.v X X X X X y y.y.5 X X X X X X X X X X X X X X X 7 y.y.t X X K y.! X X X X X X X X X X X X     ",
"  X X X X X X X X X X X X X 8 y.y.3 X X X X + :.y.F X X X X X X X X X X X X X X X T y.} $ X 7 y.y.7 X X X X X X X X X X X X .   ",
"  X X X X X X X X X X X X X O V y.T + X X X X e y.y.w X X X X X X X X X X X X . 0 y.y.w X X ! y.K X X X X X X X X X X X X X X   ",
"  . X X X X X X X X X X X X X 2 y.y.w X X X X O } y.T X X X X X X X X X X X X + [ y./ X X 8 y.y.4 X X X X X X X X X X X X X X   ",
"  X X X X X X X X X X X X X X X T y.o.+ X X X X 9 y.y.3 X X X X X X X X X X X r y.y.7 X + / y.G X X X X X X X X X X X X X X .   ",
"  X X X X X X X X X X X X X X X w y.y.r X X X X o / y.M X X X X X X X X X X @ [ y.! X X 0 y.y.8 X X X X X X X X X X X X X X .   ",
"  X X X X X X X X X X X X X X X O { y.*.+ X X X X 5 y.y.5 X X X X X X X X X r y.y.7 X + / y./ X X X X X X X X X X X X X X X .   ",
"  . X X X X X X X X X X X X X X X 8 y.y.t X X X X o A y.G X X X X X X X X $ +.y.T X X r y.y.7 X X X X X X X X X X X X X X X X   ",
"  X X X X X X X X X X X X X X X X o T y.:.+ X X X X 7 y.y.8 X X X X X X . i y.y.5 X @ [ y.T X X X X X X X X X X X X X X X X X   ",
"  X X X X X X X X X X X X X X X X X 7 y.y.y X X X X + =.y.} X X X X X X X / y.K X X r y.y.7 X X X X X X X X X X X X X X X X X   ",
"    X X X X X X X X X X X X X X X X X C y.:.+ X X X X r y.y.q X X X X X 8 y.y.3 X # ..y.T X X X X X X X X X X X X X X X X X     ",
"    X X X X X X X X X X X X X X X X X 3 y.y.y . X X X + +.y.o.o X X X X / y.C X X i y.y.7 X X X X X X X X X X X X X X X X X     ",
"    X X X X X X X X X X X X X X X X X X n y.3.# X X X X q y.y.w X X X w y.y.2 X $ *.y.T X X X X X X X X X X X X X X X X X X     ",
"    X X X X X X X X X X X X X X X X X X < y.y.s X X X X X A y.:.+ X + +.y.z X X d y.y.< X X X X X X X X X X X X X X X X X X     ",
"      . X X X X X X X X X X X X X X X X . c y.6.% X X X X 3 y.y.y X X v y.< X % 7.y.c X X X X X X X X X X X X X X X X X X       ",
"      . X X X X X X X X X X X X X X X X X < y.y.d X X X X X m y.3.+ X 1 F X X h y.y.< X X X X X X X X X X X X X X X X X .       ",
"      . X X X X X X X X X X X X X X X X X X c y.7.* X X X X 1 y.y.u X X * X % y.y.x . X X X X X X X X X X X X X X X X X .       ",
"        X X X X X X X X X X X X X X X X X X > y.y.j X X X X X v y.3.@ X X X f y.y.: X X X X X X X X X X X X X X X X X .         ",
"        . X X X X X X X X X X X X X X X X X X x y.7.= X X X X 1 y.y.i X X % y.y.l X X X X X X X X X X X X X X X X X X .         ",
"          X X X X X X X X X X X X X X X X X . : y.y.j X X X X X v y.6.@ X j y.y.- X X X X X X X X X X X X X X X X X X           ",
"          X X X X X X X X X X X X X X X X X X . x y.3.@ X X X X < y.y.p % 4.y.k X X X X X X X X X X X X X X X X X X .           ",
"            X X X X X X X X X X X X X X X X X X ; y.y.s & & & & & m y.6.j y.y.* X X X X X X X X X X X X X X X X X X             ",
"            X X X X X X X X X X X X X X X X X X X l y.y.y.y.y.y.y.y.y.y.y.y.j X X X X X X X X X X X X X X X X X X X             ",
"              X X X X X X X X X X X X X X X X X X * 6.y.y.y.y.y.y.y.y.y.y.7.% X X X X X X X X X X X X X X X X X X               ",
"                . X X X X X X X X X X X X X X X X X = ; ; ; ; ; ; : : : : = X X X X X X X X X X X X X X X X X .                 ",
"                . X X X X X X X X X X X X X X X X X X X X X X X X X X X X X X X X X X X X X X X X X X X X X . .                 ",
"                  X X X X X X X X X X X X X X X X X X X X X X X X X X X X X X X X X X X X X X X X X X X X X X                   ",
"                    X X X X X X X X X X X X X X X X X X X X X X X X X X X X X X X X X X X X X X X X X X X X                     ",
"                      X X X X X X X X X X X X X X X X X X X X X X X X X X X X X X X X X X X X X X X X X X                       ",
"                          X X X X X X X X X X X X X X X X X X X X X X X X X X X X X X X X X X X X X X                           ",
"                            . X X X X X X X X X X X X X X X X X X X X X X X X X X X X X X X X X X X                             ",
"                              X X X X X X X X X X X X X X X X X X X X X X X X X X X X X X X X . X                               ",
"                                  . X X X X X X X X X X X X X X X X X X X X X X X X X X X X X                                   ",
"                                      . X X X X X X X X X X X X X X X X X X X X X X X . X                                       ",
"                                          . X . X X X X X X X X X X X X X X X X . X X                                           ",
"                                                  X X X X . X X X X X . X X X                                                   ",
"                                                                                                                                ",
"                                                                                                                                "
};
