/* XPM */
static char *_3ed7bd2d98d4816d6f25c96e6f5a1e3DNjlRT8l9strZ73H[] = {
/* columns rows colors chars-per-pixel */
"32 33 148 2 ",
"   c None",
".  c #17826C",
"X  c #17836C",
"o  c #17836D",
"O  c #17846C",
"+  c #17846D",
"@  c #17856D",
"#  c #17846E",
"$  c #17856E",
"%  c #19806B",
"&  c #18836B",
"*  c #19836B",
"=  c #18836C",
"-  c #19836C",
";  c #18836D",
":  c #19836D",
">  c #1A826C",
",  c #1A826D",
"<  c #18846C",
"1  c #19846C",
"2  c #18846D",
"3  c #19846D",
"4  c #18856D",
"5  c #19856D",
"6  c #1A846D",
"7  c #18846E",
"8  c #18856E",
"9  c #1B866F",
"0  c #258B75",
"q  c #258B76",
"w  c #268B76",
"e  c #278B76",
"r  c #258C76",
"t  c #268C76",
"y  c #288C76",
"u  c #298C77",
"i  c #298D77",
"p  c #2A8C77",
"a  c #2A8D78",
"s  c #2A8E78",
"d  c #2C8F7A",
"f  c #2F907B",
"g  c #33917C",
"h  c #32917D",
"j  c #33937F",
"k  c #34927F",
"l  c #35927F",
"z  c #34937F",
"x  c #35937F",
"c  c #33947F",
"v  c #38917F",
"b  c #359480",
"n  c #3B9381",
"m  c #389481",
"M  c #3B9682",
"N  c #429A88",
"B  c #459988",
"V  c #52A191",
"C  c #50A290",
"Z  c #50A291",
"A  c #51A391",
"S  c #53A391",
"D  c #55A292",
"F  c #55A493",
"G  c #5DA797",
"H  c #5BA898",
"J  c #5EA899",
"K  c #63AB9D",
"L  c #68AE9F",
"P  c #67AEA0",
"I  c #69AEA0",
"U  c #6BB0A3",
"Y  c #6BB1A3",
"T  c #6CB1A3",
"R  c #6DB1A3",
"E  c #6FB1A3",
"W  c #6FB2A3",
"Q  c #6DB1A4",
"!  c #6FB1A4",
"~  c #71B2A5",
"^  c #83BDB0",
"/  c #8BC1B5",
"(  c #8AC1B6",
")  c #89C2B6",
"_  c #8CC1B5",
"`  c #8DC1B7",
"'  c #8EC0B6",
"]  c #92C4BA",
"[  c #94C4BB",
"{  c #94C5BB",
"}  c #99C6BE",
"|  c #99CABF",
" . c #9ACAC1",
".. c #9CC9C0",
"X. c #9ECAC1",
"o. c #A0CDC4",
"O. c #A3CEC6",
"+. c #A5D0C7",
"@. c #A7D0C7",
"#. c #A6D1C8",
"$. c #A7D1C9",
"%. c #A8D0C9",
"&. c #B1D6CD",
"*. c #B6D8D1",
"=. c #B9DAD3",
"-. c #C2DFD9",
";. c #C4DFDA",
":. c #C5DFDA",
">. c #C7DFDA",
",. c #C9DFDA",
"<. c #C1E0D9",
"1. c #CAE2DD",
"2. c #CDE3DE",
"3. c #D3E7E4",
"4. c #D5E8E5",
"5. c #D4E9E5",
"6. c #DBEEEA",
"7. c #DDEEEB",
"8. c #DEEEEB",
"9. c #DFEEEC",
"0. c #DFEFEC",
"q. c #E0EFEC",
"w. c #E1EFEC",
"e. c #E1EFED",
"r. c #E2EFED",
"t. c #E3EFED",
"y. c #E4F0EE",
"u. c #E5F1EF",
"i. c #EFF5F4",
"p. c #EDF6F4",
"a. c #EEF6F5",
"s. c #F0F6F5",
"d. c #F0F7F5",
"f. c #F0F7F6",
"g. c #F2F7F6",
"h. c #F2F7F7",
"j. c #F6F9F9",
"k. c #F6FBF9",
"l. c #F7FCFB",
"z. c #F9FDFC",
"x. c #FAFCFC",
"c. c #FBFEFD",
"v. c #FCFEFE",
"b. c #FDFFFE",
"n. c #FEFEFF",
"m. c #FFFEFF",
"M. c #FEFFFF",
"N. c white",
/* pixels */
"                                                                ",
"                        % - - 8 8 8 - +                         ",
"                  % + 8 8 8 8 8 8 8 8 8 8 8 8                   ",
"                8 8 8 8 8 8 8 8 8 8 8 8 8 8 8 8                 ",
"            - 8 - 8 8 8 8 8 8 8 8 8 8 8 8 8 8 8 8 8             ",
"          8 8 8 - - 8 8 8 8 - 8 8 8 8 8 8 8 8 8 8 8 -           ",
"        8 8 8 8 8 8 8 8 8 8 8 8 8 8 8 8 8 8 - 8 8 8 8 8         ",
"      . 8 8 8 8 8 8 8 8 8 8 8 8 8 8 8 8 8 8 8 8 8 8 8 8 .       ",
"      8 8 8 8 8 8 8 8 8 8 8 8 8 8 8 8 8 8 8 8 8 8 8 8 8 8       ",
"    8 8 8 8 8 8 8 8 8 8 8 8 8 8 8 8 8 8 8 8 8 8 8 8 8 8 8 .     ",
"    8 8 8 8 8 8 8 8 8 8 8 8 8 8 8 8 8 8 8 8 8 8 8 8 8 8 8 8     ",
"  - 8 8 8 M _ _ _ _ _ B 8 8 8 8 8 8 8 8 8 8 ^ Z l / c 8 8 8 +   ",
"  + 8 8 8 8 u.a.<.-.7.,.8 8 8 8 8 8 8 8 8 P v.l | w.8 8 8 8 8   ",
"  8 8 8 8 8 ~ f.e 8 g c.D 8 8 8 8 8 8 8 8 0.@.l l.R 8 8 8 8 8   ",
"  8 8 8 8 8 - 7._ 8 8 X.2.+ 8 8 8 8 - 8 Y v.g o.w.8 8 8 8 8 8   ",
"8 8 8 8 8 8 8 I f.p 8 f k.J 8 8 8 8 8 - w.@.l v.R 8 8 8 8 8 8 8 ",
"8 8 8 8 8 - 8 8 4.{ 8 8 { 4.- 8 8 8 8 ! v.g @.w.8 8 8 8 8 8 8 % ",
"% 8 8 8 8 8 8 8 G k.d 8 a f.L 8 8 8 8 w.o.l v.R 8 8 8 8 8 8 8 + ",
"- 8 8 8 8 8 8 8 8 2.X.8 8 _ 7.8 8 8 ! c.l #.0.8 8 8 8 8 8 8 8   ",
"  8 8 8 8 8 8 8 8 F c.g 8 p f.R 8 + w. .b v.Y 8 8 8 8 8 8 8 8   ",
"  8 8 8 8 8 8 8 8 + ;.@.8 8 / u.e R a.l #.6.8 8 8 8 8 8 8 8 8   ",
"  - 8 8 8 8 8 8 8 8 Z v.M 8 e f./ Z ] l v.K 8 8 8 8 8 8 8 8 +   ",
"    8 8 8 8 8 8 8 8 8 ;.&.8 8 / f.r e %.3.+ 8 8 8 8 8 8 8 8     ",
"    8 8 8 8 8 8 8 8 8 Z v.N 8 r a./ l v.H 8 8 8 8 8 8 8 8 -     ",
"      8 8 8 8 8 8 8 8 8 ;.=.n v } f.*.1.+ 8 8 8 8 8 8 8 8       ",
"      - 8 8 8 8 8 8 8 8 Z v.v.v.v.v.v.Z 8 8 8 8 8 8 8 8 .       ",
"        - 8 8 8 8 8 8 8 8 p p p a a a 8 8 8 8 8 8 8 8 -         ",
"          - 8 8 8 8 8 8 8 8 8 8 8 8 8 8 8 8 8 8 8 8 8           ",
"            8 8 8 8 8 8 8 8 8 8 8 8 8 8 8 8 8 8 8 .             ",
"              8 8 8 8 8 8 8 8 8 8 8 8 8 8 8 8 8 -               ",
"                  8 8 8 8 8 8 8 8 8 8 8 8 8 %                   ",
"                      8 - + 8 8 8 - 8 8 +                       ",
"                                                                "
};
